<svg viewBox="0 0 512 512" xmlns="http://www.w3.org/2000/svg"><rect width="512" height="512" rx="50" ry="50" fill="#3a3a3a"/><path d="M256 0v256h256V50c0-27.7-22.3-50-50-50z" fill="#e8852d"/><path d="M256 256v256h206c27.7 0 50-22.3 50-50V256z" fill="#106bc0"/><path d="M256 256v256L0 384z" fill="#f14220"/><path d="M20.01 10A49.8 49.8 0 0 0 0 50v206l256-128z" fill="#55ab13"/><path d="M256 256h256V48.28C467.91 163.65 361.4 223.33 256 256zm256 48.28C467.91 419.65 361.4 479.33 256 512h206c27.7 0 50-22.3 50-50z" fill="#fff" opacity=".15"/><path d="M20.01 10A49.8 49.8 0 0 0 0 50v50.68L256 128zM0 384l256 128V411.32z" fill="#fefffe" opacity=".15"/><path d="M16.15 311.3q-5.1-10.23-4.43-20.92.64-10.74 6.61-19.53 6.03-8.82 16.16-13.88 2.87-1.42 6.36-2.68 3.5-1.26 7.88-2.17t8.22-.9q3.85-.04 7.17 1.52 3.35 1.48 4.92 4.64l4.76 9.55-11.83 5.9-2.74-5.48q-.94-1.89-3.14-2.55-2.23-.7-5.05-.27-2.76.41-5.4 1.3-2.62.82-5 2.01-10.33 5.15-13.6 15.14-3.25 9.98 2.26 21.04 5.88 11.8 16.27 15.63 10.42 3.77 21-1.5 1.9-.94 4.08-2.4 2.2-1.52 4.46-3.55t3.28-4.36q1.02-2.33.05-4.27l-2.73-5.48 11.79-5.88 4.81 9.65q1.5 3.01.74 6.48-.75 3.46-3.03 6.54-2.26 3-5.56 5.98-3.33 2.93-6.67 5.08-3.28 2.18-6.43 3.75-10.48 5.23-21.4 4.61-10.87-.7-19.81-6.71-8.92-6.1-14-16.29zm85.76-31.49-17.03-34.15-8.49 4.23-4.9-9.85 30.02-14.97 4.91 9.85-8.53 4.25 17.02 34.16q3.05 6.11 7.39 8.85 3.32 2.05 7.63 1.95t8.78-2.31q4.46-2.23 7.11-5.55 2.62-3.36 2.97-7.41.39-5.17-2.63-11.23l-16.98-34.06-8.45 4.21-4.9-9.84 29.88-14.9 4.9 9.84-8.43 4.21 17.03 34.16q5.37 10.77 3.68 20.27-1.27 6.8-6.2 12.47-4.95 5.62-12.27 9.28-7.52 3.74-14.99 4.2-7.42.42-13.4-2.47-8.48-3.89-14.12-15.19zm86.98-10.22-4.86-9.75 8.44-4.21-25.4-50.94-8.44 4.2-4.91-9.84 30.51-15.21q9.22-4.6 15.55-5.64 12.03-2.11 22.6 3.64 10.6 5.74 16.99 18.54 6.17 12.37 4.7 24-1.5 11.6-9.99 20.07-4.78 4.99-14.58 9.88zm16.29-21.15 8.54-4.26q7.03-3.5 10.6-7.52 4.9-5.6 5.42-13.3.5-7.76-3.76-16.3-4.38-8.78-11-12.93-6.63-4.2-14.22-3.51-4.87.43-11.81 3.89l-8.54 4.25z" fill="#fefefe"/><path d="M341.43 228v-27.65h23.93V55.92h-23.93V28h85.14v27.92h-24.2v144.43h24.2V228z" fill="#fff"/><path d="M283.8 382.67q0-20.48 7.71-38.7 7.72-18.22 20.88-31.38 13.3-13.16 31.92-20.88 18.75-7.71 39.76-7.71 28.06 0 51.06 13.03 23 13.03 36.04 35.77 13.03 22.6 13.03 49.87 0 28.06-13.03 51.33t-36.04 36.7q-23 13.3-51.06 13.3-21.01 0-39.76-7.85-18.62-7.98-31.92-21.4-13.16-13.57-20.88-32.32t-7.71-39.76zm36.7 0q0 29.52 18.62 49.73 18.62 20.22 44.95 20.22 17.28 0 31.78-9.05 14.5-9.17 23-25.26 8.65-16.1 8.65-35.64 0-18.75-8.65-34.17-8.5-15.56-23-24.34t-31.78-8.78q-17.3 0-31.92 8.78-14.5 8.78-23.14 24.34-8.5 15.42-8.5 34.17z" fill="#fff"/></svg>
